<svg width="250" height="304" viewBox="0 0 250 304" fill="none" xmlns="http://www.w3.org/2000/svg">
    <mask id="mask0_11_882" style="mask-type:luminance" maskUnits="userSpaceOnUse" x="0" y="0"
        width="250" height="304">
        <path
            d="M0.339844 0.289062H99.7383V22.8789H0.339844V0.289062ZM77.1484 22.8789H99.7383V36.9414H77.1484V22.8789ZM40 36.9414H99.7383V59.5312H40V36.9414ZM106.012 37.1914H141.031V59.7812H106.012V37.1914ZM118.441 59.7812H141.031V163.699H118.441V59.7812ZM118.441 163.699H249.09V186.289H118.441V163.699ZM77.1484 59.5312H99.7383V203.109H77.1484V59.5312ZM77.1484 203.109H207.172V225.699H77.1484V203.109ZM184.578 225.699H207.172V235.488H184.578V225.699ZM226.5 186.289H249.09V241.262H226.5V186.289ZM40 59.5312H62.5898V241.262H40V59.5312ZM0.339844 22.8789H22.9297V241.262H0.339844V22.8789ZM68.7383 241.262H249.09V263.852H68.7383V241.262ZM0.339844 241.262H62.5898V263.852H0.339844V241.262ZM187.34 263.852H209.93V280.422H187.34V263.852ZM40 263.852H62.5898V280.422H40V263.852ZM40 280.422H209.93V303.012H40V280.422Z"
            fill="white" />
    </mask>
    <g mask="url(#mask0_11_882)">
        <path d="M0.339844 0.289062V303.012H249.09V0.289062H0.339844Z"
            fill="url(#paint0_linear_11_882)" />
    </g>
    <defs>
        <linearGradient id="paint0_linear_11_882" x1="-24.5" y1="151.5" x2="268.5" y2="150"
            gradientUnits="userSpaceOnUse">
            <stop stop-color="#366478" />
            <stop offset="1" stop-color="#7ED9FF" />
        </linearGradient>
    </defs>
</svg>