<svg width="249" height="303" viewBox="0 0 249 303" fill="none" xmlns="http://www.w3.org/2000/svg">
    <path
        d="M0 0H99.3984V22.5898H0V0ZM76.8086 22.5898H99.3984V36.6523H76.8086V22.5898ZM39.6602 36.6523H99.3984V59.2422H39.6602V36.6523ZM105.672 36.9023H140.691V59.4922H105.672V36.9023ZM118.102 59.4922H140.691V163.41H118.102V59.4922ZM118.102 163.41H248.75V186H118.102V163.41ZM76.8086 59.2422H99.3984V202.82H76.8086V59.2422ZM76.8086 202.82H206.832V225.41H76.8086V202.82ZM184.238 225.41H206.832V235.199H184.238V225.41ZM226.16 186H248.75V240.973H226.16V186ZM39.6602 59.2422H62.25V240.973H39.6602V59.2422ZM0 22.5898H22.5898V240.973H0V22.5898ZM68.3984 240.973H248.75V263.562H68.3984V240.973ZM0 240.973H62.25V263.562H0V240.973ZM187 263.562H209.59V280.133H187V263.562ZM39.6602 263.562H62.25V280.133H39.6602V263.562ZM39.6602 280.133H209.59V302.723H39.6602V280.133Z"
        fill="url(#paint0_linear_40_2)" />
    <defs>
        <linearGradient id="paint0_linear_40_2" x1="7.66673e-06" y1="151" x2="249" y2="151"
            gradientUnits="userSpaceOnUse">
            <stop stop-color="#46332E" />
            <stop offset="1" stop-color="#F59115" />
        </linearGradient>
    </defs>
</svg>